{
  "accessors": [
    {
      "bufferView": 2,
      "componentType": 5126,
      "count": 5154,
      "max": [
        0.6996744871139526,
        1.003702998161316,
        0.6996744871139526
      ],
      "min": [
        -0.6996744871139526,
        -0.0013183951377868652,
        -0.6996744275093079
      ],
      "type": "VEC3"
    },
    {
      "bufferView": 2,
      "byteOffset": 61848,
      "componentType": 5126,
      "count": 5154,
      "max": [
        0.9999286532402039,
        1.0,
        0.9999287128448486
      ],
      "min": [
        -0.9999286532402039,
        -1.0,
        -0.9999287724494934
      ],
      "type": "VEC3"
    },
    {
      "bufferView": 1,
      "componentType": 5126,
      "count": 5154,
      "max": [
        0.9958845376968384,
        0.9937542676925659
      ],
      "min": [
        0.004111886024475098,
        0.004109382629394531
      ],
      "type": "VEC2"
    },
    {
      "bufferView": 0,
      "componentType": 5125,
      "count": 23784,
      "type": "SCALAR"
    },
    {
      "bufferView": 2,
      "byteOffset": 123696,
      "componentType": 5126,
      "count": 816,
      "max": [
        0.1680731177330017,
        0.9358263611793518,
        0.13143043220043182
      ],
      "min": [
        -0.13578639924526215,
        0.9201406836509705,
        -0.1460239589214325
      ],
      "type": "VEC3"
    },
    {
      "bufferView": 2,
      "byteOffset": 133488,
      "componentType": 5126,
      "count": 816,
      "max": [
        1.0,
        0.0,
        1.0
      ],
      "min": [
        -1.0,
        -1.0,
        -1.0
      ],
      "type": "VEC3"
    },
    {
      "bufferView": 1,
      "byteOffset": 41232,
      "componentType": 5126,
      "count": 816,
      "max": [
        0.9816018342971802,
        0.8979047536849976
      ],
      "min": [
        0.004113197326660156,
        0.004111826419830322
      ],
      "type": "VEC2"
    },
    {
      "bufferView": 0,
      "byteOffset": 95136,
      "componentType": 5125,
      "count": 2136,
      "type": "SCALAR"
    }
  ],
  "asset": {
    "extras": {
      "author": "Harsh Wardhan (https://sketchfab.com/harshwardhan847)",
      "license": "CC-BY-4.0 (http://creativecommons.org/licenses/by/4.0/)",
      "source": "https://sketchfab.com/3d-models/table-6cae5dd804394d90b89fc98b72a48027",
      "title": "Table"
    },
    "generator": "Sketchfab-14.6.0",
    "version": "2.0"
  },
  "bufferViews": [
    {
      "buffer": 0,
      "byteLength": 103680,
      "name": "floatBufferViews",
      "target": 34963
    },
    {
      "buffer": 0,
      "byteLength": 47760,
      "byteOffset": 103680,
      "byteStride": 8,
      "name": "floatBufferViews",
      "target": 34962
    },
    {
      "buffer": 0,
      "byteLength": 143280,
      "byteOffset": 151440,
      "byteStride": 12,
      "name": "floatBufferViews",
      "target": 34962
    }
  ],
  "buffers": [
    {
      "byteLength": 294720,
      "uri": "scene.bin"
    }
  ],
  "images": [
    {
      "uri": "textures/wood_table_001_baseColor.jpeg"
    },
    {
      "uri": "textures/wood_table_001_metallicRoughness.png"
    }
  ],
  "materials": [
    {
      "doubleSided": true,
      "name": "wood_table_001",
      "pbrMetallicRoughness": {
        "baseColorTexture": {
          "index": 0
        },
        "metallicFactor": 0.0,
        "metallicRoughnessTexture": {
          "index": 1
        }
      }
    },
    {
      "doubleSided": true,
      "name": "round_wooden_table_01"
    }
  ],
  "meshes": [
    {
      "name": "Object_0",
      "primitives": [
        {
          "attributes": {
            "NORMAL": 1,
            "POSITION": 0,
            "TEXCOORD_0": 2
          },
          "indices": 3,
          "material": 0,
          "mode": 4
        }
      ]
    },
    {
      "name": "Object_1",
      "primitives": [
        {
          "attributes": {
            "NORMAL": 5,
            "POSITION": 4,
            "TEXCOORD_0": 6
          },
          "indices": 7,
          "material": 1,
          "mode": 4
        }
      ]
    }
  ],
  "nodes": [
    {
      "children": [
        1
      ],
      "matrix": [
        1.0,
        0.0,
        0.0,
        0.0,
        0.0,
        2.220446049250313e-16,
        -1.0,
        0.0,
        0.0,
        1.0,
        2.220446049250313e-16,
        0.0,
        0.0,
        0.0,
        0.0,
        1.0
      ],
      "name": "Sketchfab_model"
    },
    {
      "children": [
        2
      ],
      "name": "root"
    },
    {
      "children": [
        3,
        5
      ],
      "matrix": [
        1.0,
        0.0,
        0.0,
        0.0,
        0.0,
        2.220446049250313e-16,
        1.0,
        0.0,
        0.0,
        -1.0,
        2.220446049250313e-16,
        0.0,
        0.0,
        0.0,
        0.0,
        1.0
      ],
      "name": "GLTF_SceneRootNode"
    },
    {
      "children": [
        4
      ],
      "matrix": [
        1.8727480173110962,
        0.0,
        0.0,
        0.0,
        0.0,
        1.8727480173110962,
        0.0,
        0.0,
        0.0,
        0.0,
        1.8727480173110962,
        0.0,
        0.0,
        0.0,
        0.0,
        1.0
      ],
      "name": "round_wooden_table_01.002_0"
    },
    {
      "mesh": 0,
      "name": "Object_4"
    },
    {
      "children": [
        6
      ],
      "matrix": [
        1.8727480173110962,
        0.0,
        0.0,
        0.0,
        0.0,
        1.8727480173110962,
        0.0,
        0.0,
        0.0,
        0.0,
        1.8727480173110962,
        0.0,
        0.0,
        0.0,
        0.0,
        1.0
      ],
      "name": "round_wooden_table_01_bolts.001_1"
    },
    {
      "mesh": 1,
      "name": "Object_6"
    }
  ],
  "samplers": [
    {
      "magFilter": 9729,
      "minFilter": 9987,
      "wrapS": 10497,
      "wrapT": 10497
    }
  ],
  "scene": 0,
  "scenes": [
    {
      "name": "Sketchfab_Scene",
      "nodes": [
        0
      ]
    }
  ],
  "textures": [
    {
      "sampler": 0,
      "source": 0
    },
    {
      "sampler": 0,
      "source": 1
    }
  ]
}
